<svg width="32" height="32" viewBox="0 0 32 32" fill="none" xmlns="http://www.w3.org/2000/svg">
<path d="M2.07143 7.77551H29.9286C30.5203 7.77551 31 7.30041 31 6.71429V4.06122C31 3.4751 30.5203 3 29.9286 3H2.07143C1.47967 3 1 3.4751 1 4.06122V6.71429C1 7.30041 1.47967 7.77551 2.07143 7.77551ZM2.07143 18.3878H29.9286C30.5203 18.3878 31 17.9127 31 17.3265V14.6735C31 14.0873 30.5203 13.6122 29.9286 13.6122H2.07143C1.47967 13.6122 1 14.0873 1 14.6735V17.3265C1 17.9127 1.47967 18.3878 2.07143 18.3878ZM2.07143 29H29.9286C30.5203 29 31 28.5249 31 27.9388V25.2857C31 24.6996 30.5203 24.2245 29.9286 24.2245H2.07143C1.47967 24.2245 1 24.6996 1 25.2857V27.9388C1 28.5249 1.47967 29 2.07143 29Z" fill="white"/>
</svg>
