<svg width="90" height="57" viewBox="0 0 90 57" fill="none" xmlns="http://www.w3.org/2000/svg">
<path d="M21.9375 19.7832H26.5173V24.8152H21.9375V19.7832ZM16.2835 19.7832H20.8633V24.8152H16.2835V19.7832ZM10.6295 19.7832H15.2093V24.8152H10.6295V19.7832ZM4.97552 19.7832H9.55526V24.8152H4.97552V19.7832ZM27.5915 19.7832H32.1713V24.8152H27.5915V19.7832Z" fill="#F6FA2A"/>
<path d="M52.875 20.2835L52.875 24.8633L47.843 24.8633L47.843 20.2835L52.875 20.2835ZM40.4362 31.5915L40.4362 36.1713L35.4042 36.1713L35.4042 31.5915L40.4362 31.5915ZM40.4362 8.97552L40.4362 13.5553L35.4042 13.5553L35.4042 8.97552L40.4362 8.97552ZM46.6556 14.6295L46.6556 19.2093L41.6236 19.2093L41.6236 14.6295L46.6556 14.6295ZM46.6556 25.9375L46.6556 30.5173L41.6236 30.5173L41.6236 25.9375L46.6556 25.9375Z" fill="#F6FA2A"/>
</svg>
