<svg width="21" height="24" viewBox="0 0 21 24" fill="none" xmlns="http://www.w3.org/2000/svg">
<path d="M6.208 9.864H7.504V11.288H6.208V9.864ZM4.608 9.864H5.904V11.288H4.608V9.864ZM3.008 9.864H4.304V11.288H3.008V9.864ZM1.408 9.864H2.704V11.288H1.408V9.864ZM7.808 9.864H9.104V11.288H7.808V9.864Z" fill="#F6FA2A"/>
<path d="M16.416 9.608L16.416 10.904L14.992 10.904L14.992 9.608L16.416 9.608ZM12.896 12.808L12.896 14.104L11.472 14.104L11.472 12.808L12.896 12.808ZM12.896 6.408L12.896 7.704L11.472 7.704L11.472 6.408L12.896 6.408ZM14.656 8.008L14.656 9.304L13.232 9.304L13.232 8.008L14.656 8.008ZM14.656 11.208L14.656 12.504L13.232 12.504L13.232 11.208L14.656 11.208Z" fill="#F6FA2A"/>
</svg>
