<svg width="28" height="22" viewBox="0 0 28 22" fill="none" xmlns="http://www.w3.org/2000/svg">
<path d="M2.00001 12.0261L2.00001 9.9741L4.23772 9.9741L4.23772 12.0261L2.00001 12.0261ZM7.53144 6.95944L7.53144 4.90743L9.76915 4.90743L9.76915 6.95944L7.53144 6.95944ZM7.53144 17.0928L7.53144 15.0408L9.76915 15.0408L9.76915 17.0928L7.53144 17.0928ZM4.76572 14.5594L4.76572 12.5074L7.00344 12.5074L7.00343 14.5594L4.76572 14.5594ZM4.76572 9.49277L4.76572 7.44077L7.00344 7.44077L7.00344 9.49277L4.76572 9.49277Z" fill="#F3F3F3"/>
<path d="M21.312 9.87268H23.3486V12.1273H21.312V9.87268ZM18.7977 9.87268H20.8343V12.1273H18.7977V9.87268ZM16.2834 9.87268H18.32V12.1273H16.2834V9.87268ZM13.7691 9.87268H15.8057V12.1273H13.7691V9.87268ZM23.8263 9.87268H25.8629V12.1273H23.8263V9.87268Z" fill="#F3F3F3"/>
</svg>
