<svg width="28" height="24" viewBox="0 0 28 24" fill="none" xmlns="http://www.w3.org/2000/svg">
<path d="M1.14285 4.40816H26.8571C27.4034 4.40816 27.8461 3.96961 27.8461 3.42857V0.979592C27.8461 0.438551 27.4034 0 26.8571 0H1.14285C0.596607 0 0.153839 0.438551 0.153839 0.979592V3.42857C0.153839 3.96961 0.596607 4.40816 1.14285 4.40816ZM1.14285 14.2041H26.8571C27.4034 14.2041 27.8461 13.7655 27.8461 13.2245V10.7755C27.8461 10.2345 27.4034 9.79592 26.8571 9.79592H1.14285C0.596607 9.79592 0.153839 10.2345 0.153839 10.7755V13.2245C0.153839 13.7655 0.596607 14.2041 1.14285 14.2041ZM1.14285 24H26.8571C27.4034 24 27.8461 23.5614 27.8461 23.0204V20.5714C27.8461 20.0304 27.4034 19.5918 26.8571 19.5918H1.14285C0.596607 19.5918 0.153839 20.0304 0.153839 20.5714V23.0204C0.153839 23.5614 0.596607 24 1.14285 24Z" fill="white"/>
</svg>
